# xmcd CD database file
#
# Track frame offsets:
#	150
#	11306
#	27483
#	38399
#	50284
#	62356
#	72896
#	82601
#	100756
#	113519
#	125565
#	134168
#	143572
#	154302
#	167295
#	184606
#	197230
#	207495
#	219741
#	232020
#	242875
#	254677
#	266691
#
# Disc length: 3699 seconds
#
# Revision: 0
# Processed by: cddbd v1.5.2PL0 Copyright (c) Steve Scherf et al.
# Submitted via: CDex 1.95
#
DISCID=3f0e7117
DTITLE=Dave Dudley - King Of Country Music-Vol 3
DYEAR=2005
DGENRE=Country
TTITLE0=Dave Duley - My Town
TTITLE1=Dave Duley - One A.M. Alone
TTITLE2=Dave Duley - One More Plane
TTITLE3=Dave Duley - Rodeo Drifter
TTITLE4=Dave Duley - Rollin On-We Gone
TTITLE5=Dave Duley - Rollin Rig
TTITLE6=Dave Duley - Rolling On Your Track
TTITLE7=Dave Duley - Rooster Hill
TTITLE8=Dave Duley - Salvation Arms
TTITLE9=Dave Duley - South Bound And Down
TTITLE10=Dave Duley - Sugarland U.S.A.
TTITLE11=Dave Duley - Texas Ruby
TTITLE12=Dave Duley - Thats How Cold
TTITLE13=Dave Duley - The Pool Shark
TTITLE14=Dave Duley - The Tavern Telephone
TTITLE15=Dave Duley - There Ain't No Easy Run
TTITLE16=Dave Duley - Truck Driving Son-Of-A-Gun
TTITLE17=Dave Duley - Truckin Dad
TTITLE18=Dave Duley - Wave At Em Billy Boy
TTITLE19=Dave Duley - Devils In Heaven Bound Machines
TTITLE20=Dave Duley - Greatest Man Alive
TTITLE21=Dave Duley - I Have Lived Like A Piece Of Grass
TTITLE22=Dave Duley - I Keep Looking Back
EXTD=YEAR: 2005
EXTT0=
EXTT1=
EXTT2=
EXTT3=
EXTT4=
EXTT5=
EXTT6=
EXTT7=
EXTT8=
EXTT9=
EXTT10=
EXTT11=
EXTT12=
EXTT13=
EXTT14=
EXTT15=
EXTT16=
EXTT17=
EXTT18=
EXTT19=
EXTT20=
EXTT21=
EXTT22=
PLAYORDER=
